<svg width="61" height="48" viewBox="0 0 61 48" fill="none" xmlns="http://www.w3.org/2000/svg">
<path d="M16.3239 47.7832C21.5419 47.7832 26.2663 45.9872 28.699 43.2086H28.7342L29.0868 47.1732H36.3497V33.1784H13.9264V37.6513H27.465C27.1477 40.1928 23.622 42.0226 19.0386 42.0226C13.1508 42.0226 9.20201 39.3117 9.20201 35.2793C9.20201 31.1114 12.7277 28.2989 17.8752 28.2989C21.2246 28.2989 24.0804 29.6543 24.7855 31.6197L33.3529 30.1965C32.2952 25.4864 25.9842 22.3011 17.9104 22.3011C7.19237 22.3011 0 27.6212 0 35.5504C0 42.8358 6.55775 47.7832 16.3239 47.7832Z" fill="white"/>
<path d="M39.0014 7.78271C39.0014 14.9819 43.8008 19.7813 51 19.7813C43.8008 19.7813 39.0014 24.5808 39.0014 31.7799C39.0014 24.5808 34.202 19.7813 27.0028 19.7813C34.202 19.7813 39.0014 14.9819 39.0014 7.78271Z" fill="white"/>
</svg>
