<?xml version="1.0" standalone="no"?>
<!DOCTYPE svg PUBLIC "-//W3C//DTD SVG 20010904//EN"
 "http://www.w3.org/TR/2001/REC-SVG-20010904/DTD/svg10.dtd">
<svg version="1.0" xmlns="http://www.w3.org/2000/svg"
 width="700.000000pt" height="700.000000pt" viewBox="0 0 700.000000 700.000000"
 preserveAspectRatio="xMidYMid meet">
<metadata>
Created by potrace 1.14, written by Peter Selinger 2001-2017
</metadata>
<g transform="translate(0.000000,700.000000) scale(0.100000,-0.100000)"
fill="#000000" stroke="none">
<path d="M5416 6793 c-4 -12 -23 -29 -42 -38 -40 -19 -41 -20 -13 -22 12 -1
26 -6 32 -12 15 -15 -3 -33 -29 -28 -32 6 -42 -9 -47 -73 -6 -67 1 -110 19
-110 26 0 25 -21 -5 -62 l-31 -42 27 -24 c19 -16 24 -25 15 -29 -7 -2 -19 -18
-27 -34 -16 -30 -12 -34 24 -29 9 1 7 -8 -8 -28 -27 -38 -27 -46 0 -31 18 9
17 4 -10 -33 -32 -45 -34 -71 -5 -82 16 -6 18 2 5 24 -6 8 -7 18 -5 22 6 9 44
-9 44 -20 0 -4 -18 -29 -40 -56 -44 -54 -55 -90 -15 -50 35 35 48 22 29 -27
-9 -21 -14 -48 -11 -58 4 -17 0 -18 -34 -14 -31 5 -39 2 -39 -10 0 -9 9 -22
21 -30 15 -11 19 -23 16 -44 -7 -43 -45 -113 -62 -113 -20 0 -19 4 15 66 l29
54 -22 0 c-13 0 -32 7 -43 15 -29 22 -40 18 -17 -7 27 -30 34 -64 17 -79 -22
-18 -16 -52 17 -92 35 -43 33 -45 -22 -16 -43 22 -59 21 -36 -3 8 -7 21 -27
29 -43 14 -25 14 -34 2 -68 -7 -21 -13 -43 -11 -49 1 -7 -11 -18 -26 -26 -26
-13 -28 -17 -22 -49 l6 -36 -32 28 c-34 28 -49 21 -30 -14 16 -29 14 -31 -18
-25 -23 5 -32 2 -41 -16 -11 -20 -10 -21 9 -11 15 9 23 7 36 -6 16 -15 14 -18
-20 -39 -40 -24 -57 -43 -49 -56 9 -14 22 -9 44 15 l21 22 -9 -25 c-6 -17 -22
-29 -48 -38 -21 -7 -47 -22 -56 -33 -28 -33 -21 -44 7 -12 19 22 24 24 25 11
0 -22 -32 -56 -66 -69 -22 -8 -24 -12 -14 -24 17 -20 5 -62 -21 -76 -20 -10
-21 -9 -17 15 3 17 1 26 -7 26 -16 0 -25 -23 -25 -61 0 -20 -8 -34 -26 -45
-19 -13 -24 -24 -21 -42 4 -19 1 -23 -14 -19 -10 3 -32 -6 -50 -19 -35 -25
-54 -23 -46 7 3 11 2 19 -2 19 -10 0 -46 -40 -59 -66 -15 -28 -3 -39 15 -14
20 28 45 26 41 -2 -2 -15 -11 -24 -26 -26 -25 -4 -82 15 -82 27 0 3 -9 12 -20
19 -18 11 -19 10 -10 -13 13 -35 -9 -44 -97 -39 -40 3 -74 0 -77 -5 -10 -16
13 -24 68 -22 60 1 82 -5 89 -23 4 -9 0 -12 -13 -9 -11 3 -33 -5 -50 -17 -32
-23 -36 -20 -20 11 10 17 7 19 -30 17 -27 -1 -50 5 -68 18 -61 45 -68 40 -26
-21 l26 -39 -24 -46 c-23 -45 -25 -46 -54 -36 -48 18 -72 35 -79 56 -8 24 -30
26 -39 4 -11 -28 -6 -79 9 -101 18 -26 51 -35 65 -18 12 15 3 24 -31 30 -28 6
-33 11 -25 30 5 15 10 14 46 -6 34 -20 40 -27 40 -57 0 -39 50 -98 75 -88 19
7 19 -8 0 -24 -11 -9 -20 -8 -45 7 -31 18 -32 17 -45 -1 -12 -15 -17 -17 -29
-7 -17 14 -11 41 9 41 18 0 26 15 19 33 -3 9 -13 13 -24 10 -19 -5 -53 8 -103
42 l-28 18 21 -35 c11 -20 19 -40 18 -46 -2 -5 10 -22 26 -36 23 -22 27 -33
22 -58 -6 -31 -6 -31 15 -12 20 18 22 18 34 1 12 -17 31 -25 21 -8 -8 12 21
34 34 26 5 -3 7 -17 4 -31 -8 -32 0 -30 39 6 35 33 68 46 93 36 13 -5 15 -14
10 -41 -6 -28 -4 -34 7 -29 8 3 22 -3 32 -12 17 -17 17 -16 11 22 -5 28 -3 44
9 59 15 19 15 19 13 -15 -4 -44 18 -50 59 -16 32 27 43 24 61 -17 8 -18 18
-27 26 -24 17 7 26 -13 26 -55 0 -44 -20 -31 -55 35 -33 62 -46 72 -39 30 13
-85 16 -93 30 -93 8 0 30 -11 48 -25 40 -30 52 -31 66 -4 11 19 10 20 -9 9
-25 -13 -29 5 -8 33 11 16 14 16 35 2 26 -19 28 -37 7 -55 -27 -22 -18 -42 18
-40 47 3 49 2 37 -20 -6 -11 -19 -20 -29 -20 -23 0 -31 -8 -24 -26 9 -24 29
-15 71 31 22 25 42 45 45 45 3 0 0 -15 -5 -34 -14 -44 -5 -68 24 -64 17 2 22
9 21 26 -2 16 3 22 16 22 30 0 32 -27 5 -60 -25 -30 -24 -56 2 -46 19 7 18
-18 -1 -34 -26 -22 -16 -31 27 -28 35 2 43 0 46 -16 3 -15 -1 -18 -22 -14 -14
3 -26 2 -26 -2 0 -12 27 -31 42 -29 7 1 19 1 26 0 17 -1 51 -78 52 -114 0 -37
15 -64 43 -78 l22 -12 -22 25 c-29 31 -29 36 2 30 32 -6 42 -40 22 -78 -21
-42 -15 -52 66 -121 32 -27 34 -39 6 -53 -19 -10 -20 -10 -10 9 15 28 14 36
-4 21 -20 -17 -19 -36 5 -85 27 -57 79 -108 102 -101 22 5 19 -13 -4 -27 -11
-8 -24 -4 -46 11 -18 14 -37 19 -48 15 -15 -6 -15 -7 6 -15 16 -6 21 -14 17
-28 -4 -17 0 -20 26 -20 18 -1 45 -6 61 -13 l28 -12 -37 -14 c-34 -12 -37 -16
-31 -42 8 -39 44 -86 71 -93 l23 -6 -19 -38 c-25 -50 -17 -75 23 -70 38 6 31
-14 -10 -27 -29 -8 -32 -13 -32 -52 0 -31 7 -49 25 -69 30 -33 31 -41 5 -49
-20 -6 -26 -41 -20 -100 3 -27 3 -27 47 -28 26 -2 38 -7 38 -17 0 -9 -8 -14
-20 -13 -30 4 -44 -9 -58 -58 -15 -50 -12 -80 7 -73 16 6 28 -20 20 -41 -4 -8
-12 -15 -20 -15 -18 0 -18 -1 11 -51 14 -24 25 -55 25 -69 1 -23 2 -24 14 -7
8 10 12 32 9 52 -4 30 -2 33 16 28 26 -7 28 18 6 61 -8 15 -15 35 -15 43 0 26
41 94 60 101 19 7 19 10 -10 71 -32 68 -32 85 -1 57 28 -25 33 -6 16 58 -20
75 -19 77 11 39 37 -48 47 -40 24 17 -25 63 -25 70 -1 70 10 0 24 7 31 15 10
12 9 16 -4 21 -9 3 -25 4 -36 1 -25 -6 -25 -2 0 31 13 16 20 38 18 59 -1 18 3
38 10 45 7 7 12 26 12 42 0 28 1 29 17 14 15 -16 15 -19 0 -50 -17 -35 -15
-42 21 -53 20 -6 22 -4 16 19 -4 17 1 34 15 55 26 36 26 40 1 34 -23 -6 -41
30 -36 74 2 15 4 40 5 55 1 29 27 62 42 53 12 -8 11 2 -1 25 -7 13 -7 21 1 26
17 10 37 66 44 120 11 95 15 106 31 93 8 -7 12 -20 8 -31 -6 -19 11 -48 28
-48 6 0 8 6 5 14 -3 8 3 29 13 48 l18 35 -23 -5 c-25 -4 -37 11 -49 63 l-6 30
24 -27 c30 -33 37 -34 61 -8 15 17 16 20 3 20 -20 0 -38 22 -44 54 -5 29 1 31
36 11 39 -22 54 -19 36 7 -22 30 -21 32 21 72 34 32 37 40 41 100 3 42 10 70
20 78 13 11 14 10 8 -9 -5 -15 -2 -24 11 -31 12 -7 17 -20 15 -41 -1 -17 2
-31 6 -31 13 0 30 42 26 67 -4 25 18 41 54 38 21 -2 21 0 6 16 -9 10 -14 25
-11 34 8 19 -7 20 -23 0 -16 -20 -56 -19 -64 1 -4 11 -2 15 8 11 8 -3 30 3 50
14 24 13 45 17 62 13 24 -6 25 -5 14 16 -16 29 -8 35 53 36 85 3 87 3 87 22 0
10 7 27 15 38 18 24 19 34 0 34 -8 0 -19 -9 -26 -21 -7 -14 -17 -19 -30 -16
-14 4 -19 0 -19 -14 0 -14 -7 -19 -25 -19 -14 0 -25 2 -25 5 0 3 18 23 41 46
23 23 38 47 35 54 -4 11 4 14 32 12 l37 -2 -3 44 c-3 32 -1 41 8 36 7 -4 25 2
42 15 l30 22 -4 -24 c-2 -18 2 -24 21 -26 13 -2 26 -12 28 -23 5 -17 9 -15 41
16 40 38 55 32 41 -18 l-8 -30 22 21 23 22 22 -22 c20 -21 23 -21 38 -6 12 12
16 33 15 82 -1 60 18 136 34 136 3 0 4 -3 2 -7 -3 -5 -1 -19 4 -32 9 -22 14
-23 64 -19 30 3 55 1 55 -3 0 -11 -49 -24 -73 -20 -17 2 -17 0 4 -28 27 -37
53 -50 44 -22 -12 39 78 59 115 26 20 -18 20 -17 20 12 0 40 -21 57 -60 48
-16 -4 -30 -4 -30 0 0 4 18 32 40 62 47 66 43 84 -6 30 l-35 -38 3 28 c3 24
-1 28 -24 29 -16 1 -40 13 -54 28 -15 14 -37 29 -49 32 -35 9 -80 1 -77 -13 4
-22 -12 -15 -57 23 l-42 37 6 -37 c9 -43 -10 -50 -26 -9 -7 19 -7 35 0 51 11
23 11 23 41 5 17 -9 30 -21 30 -25 0 -4 7 -8 15 -8 9 0 15 9 15 21 l0 21 36
-21 c28 -17 39 -19 50 -10 21 18 17 27 -11 21 -18 -3 -25 0 -25 12 0 8 -13 22
-29 30 -31 16 -43 13 -34 -10 7 -18 3 -18 -65 3 -75 21 -98 22 -152 6 -55 -16
-63 -16 -54 -2 4 7 -2 19 -14 28 -17 13 -21 28 -23 81 -2 77 -6 87 -25 63 -16
-21 -19 -63 -4 -63 6 0 10 -5 10 -10 0 -14 -61 -9 -67 6 -2 6 8 33 22 61 35
72 32 79 -21 38 -44 -33 -74 -44 -74 -27 0 4 10 12 23 17 27 12 29 38 2 43
-31 6 -81 48 -113 95 -36 53 -33 73 9 51 l29 -15 -35 46 c-19 26 -35 58 -35
73 l-1 27 -19 -23 c-11 -13 -16 -30 -13 -40 6 -15 4 -14 -15 2 -27 23 -27 34
-2 66 27 34 25 40 -10 40 -34 0 -94 22 -104 39 -4 6 0 34 9 63 18 62 6 88 -24
49 -18 -23 -66 -37 -76 -21 -3 5 22 25 55 45 33 20 60 38 60 40 0 2 -14 2 -32
0 -41 -5 -89 18 -118 57 l-23 32 40 -33 c22 -17 46 -29 54 -26 8 3 24 24 37
46 l24 41 -30 -22 c-36 -27 -59 -18 -91 34 -28 45 -27 55 12 88 30 26 30 27 6
19 -15 -5 -32 -5 -42 0 -18 11 -12 39 9 39 21 0 17 11 -16 45 l-30 31 21 20
22 19 -7 -27 c-5 -22 -3 -26 9 -22 19 8 19 44 0 80 -22 43 -20 67 6 59 18 -6
19 -5 10 14 -23 42 -66 -8 -51 -59 9 -31 3 -50 -16 -50 -9 0 -14 11 -14 29 0
16 -7 45 -15 64 -14 34 -14 36 7 39 12 2 33 19 46 38 l23 35 -23 5 c-21 5 -24
13 -28 75 l-5 68 -23 -46 c-32 -64 -42 -67 -43 -10 0 26 -2 57 -4 68 -2 11 -7
40 -11 65 -8 51 -8 50 -23 120 -11 52 -6 100 10 100 5 0 9 -13 9 -30 0 -22 4
-28 15 -24 10 4 15 21 15 55 0 41 -4 51 -25 65 -21 14 -25 25 -28 82 -2 48 -6
61 -11 45z m-8 -171 c-31 -21 -39 -34 -34 -54 6 -24 -1 -22 -19 6 -20 31 -10
54 29 65 41 11 53 3 24 -17z m126 -493 c8 -9 1 -10 -29 -4 -47 8 -57 13 -50
25 6 10 64 -5 79 -21z m276 -809 c0 -5 -13 -10 -30 -10 -16 0 -30 5 -30 10 0
6 14 10 30 10 17 0 30 -4 30 -10z m68 -126 c-8 -8 -30 -18 -49 -20 -28 -5 -32
-3 -21 8 14 14 74 38 81 31 3 -2 -2 -10 -11 -19z m92 -174 c0 -5 -11 -10 -24
-10 -14 0 -28 5 -31 10 -4 6 7 10 24 10 17 0 31 -4 31 -10z m375 -257 c-1 -26
-15 -44 -26 -38 -13 8 -11 39 3 53 14 14 25 8 23 -15z m-1976 -123 c-21 -12
-75 -21 -63 -11 9 9 38 18 64 20 13 0 13 -1 -1 -9z m2270 -18 c17 -12 35 -31
41 -42 10 -18 8 -20 -25 -20 -25 0 -44 8 -66 30 -25 23 -38 29 -60 25 -38 -7
-37 3 2 19 42 18 73 14 108 -12z m-2252 -38 c3 -9 0 -20 -8 -25 -21 -13 -29
-11 -29 9 0 33 26 44 37 16z m2091 -124 c-2 -20 4 -36 20 -51 17 -15 20 -25
13 -32 -24 -24 -78 61 -60 95 15 28 31 21 27 -12z m-638 -550 c0 -9 -25 -20
-46 -20 -17 0 -19 27 -1 33 16 5 47 -3 47 -13z m-686 -225 c-6 -24 -5 -25 21
-15 39 15 52 12 33 -6 -20 -20 -67 -22 -78 -3 -10 14 5 49 21 49 5 0 7 -11 3
-25z m84 -198 c-2 -11 -8 -22 -15 -24 -14 -5 -28 40 -18 57 10 17 37 -9 33
-33z m375 -43 c-3 -8 -9 -14 -13 -14 -12 0 -20 28 -13 46 6 15 7 15 19 -1 7
-9 10 -23 7 -31z m-299 -200 c9 -24 7 -54 -3 -54 -6 0 -17 10 -25 22 -11 16
-13 25 -4 35 14 17 25 16 32 -3z"/>
<path d="M5446 6497 c3 -8 19 -24 36 -37 32 -24 30 -11 -5 28 -23 25 -39 29
-31 9z"/>
<path d="M5480 6354 c0 -11 8 -14 27 -12 39 4 42 28 4 28 -21 0 -31 -5 -31
-16z"/>
<path d="M2023 5133 c-20 -7 -15 -33 6 -33 27 0 46 26 25 34 -8 3 -16 6 -17 5
-1 0 -8 -3 -14 -6z"/>
<path d="M5986 5113 c-12 -12 -5 -21 24 -31 31 -11 49 -1 27 15 -18 15 -44 22
-51 16z"/>
<path d="M2158 5102 c-33 -4 -38 -31 -8 -50 17 -10 20 -10 20 3 0 16 16 18
101 15 61 -2 73 17 17 25 -65 9 -100 11 -130 7z"/>
<path d="M2367 5093 c-10 -10 -8 -52 3 -74 14 -25 9 -24 -53 11 -64 36 -73 37
-80 9 -6 -21 -10 -21 -89 -16 -87 6 -131 18 -160 44 -17 15 -18 14 -18 -20 0
-44 -12 -49 -134 -51 -100 -2 -136 2 -136 15 0 5 51 9 113 9 118 0 144 7 133
35 -4 13 -12 15 -29 10 -12 -4 -69 -11 -126 -16 -57 -4 -109 -13 -115 -19 -16
-16 -26 -12 -56 20 l-29 31 9 -31 c9 -32 8 -33 -27 -30 -17 1 -23 -4 -23 -20
0 -19 -5 -21 -45 -19 -54 4 -61 -2 -35 -26 25 -23 26 -45 1 -45 -23 0 -34 14
-36 47 0 13 -4 23 -8 23 -4 0 -14 0 -23 0 -14 0 -16 -7 -11 -40 6 -45 6 -45
-75 7 -53 33 -57 29 -17 -14 19 -21 41 -46 48 -56 13 -16 11 -17 -17 -15 -29
2 -62 -15 -62 -34 0 -5 9 -4 20 2 12 6 20 7 20 1 0 -15 -51 -51 -72 -51 -10 0
-32 -15 -49 -32 -16 -18 -29 -27 -29 -20 0 41 66 92 89 69 8 -8 11 -8 11 2 0
14 -61 73 -68 66 -3 -2 1 -11 7 -19 18 -21 -9 -33 -115 -47 -49 -7 -90 -13
-91 -14 -5 -3 22 -55 29 -55 4 0 30 13 58 30 27 16 50 28 50 26 0 -11 -111
-85 -142 -95 -25 -8 -38 -19 -38 -30 0 -9 -11 -33 -25 -51 -14 -19 -25 -41
-24 -50 3 -29 -1 -30 -41 -10 -21 11 -42 20 -45 20 -3 0 -5 -24 -5 -54 0 -63
-10 -71 -58 -44 -46 25 -60 22 -32 -7 23 -24 21 -39 -3 -41 -7 0 -20 -2 -29
-2 -12 -2 -18 -13 -20 -39 -3 -44 -35 -60 -45 -24 -3 12 -9 21 -13 21 -14 0
-31 -67 -24 -94 5 -20 2 -26 -10 -26 -9 0 -16 -3 -17 -7 0 -5 -2 -32 -5 -62
-5 -75 -32 -100 -37 -35 -1 15 -8 29 -14 31 -18 6 -30 -25 -37 -90 -6 -67 -18
-87 -46 -80 -11 3 -21 1 -21 -3 -1 -5 -3 -28 -4 -52 -4 -56 -11 -73 -27 -67
-7 2 -31 -4 -53 -14 l-40 -19 38 -1 c57 -1 104 -64 58 -79 -9 -3 -11 1 -6 17
10 31 -1 41 -33 30 -25 -8 -70 -68 -85 -111 -7 -20 13 -24 30 -7 18 18 33 1
33 -36 0 -41 -15 -53 -39 -31 -25 23 -31 20 -22 -11 10 -35 4 -53 -16 -53 -14
0 -13 -3 1 -25 24 -36 20 -45 -15 -38 -33 6 -79 -13 -79 -33 0 -10 7 -11 22
-6 30 11 48 9 49 -3 2 -13 -42 -36 -59 -30 -21 8 -13 -8 14 -30 l26 -21 -24
-29 c-48 -57 -52 -74 -28 -100 24 -26 21 -59 -5 -49 -19 8 -19 -5 0 -33 10
-14 21 -20 32 -16 14 6 14 1 -4 -28 -11 -19 -24 -51 -27 -71 -6 -31 -11 -38
-29 -38 -23 0 -47 -17 -47 -32 0 -5 8 -4 18 1 14 8 23 5 35 -10 12 -14 25 -18
45 -14 21 4 19 1 -12 -14 -29 -14 -46 -17 -63 -10 -21 8 -23 7 -17 -17 6 -25
5 -26 -25 -19 -19 4 -31 3 -31 -4 0 -16 35 -22 79 -12 22 5 41 7 41 5 0 -2 -9
-18 -20 -36 -18 -30 -18 -34 -4 -57 16 -23 15 -65 0 -136 -3 -11 -5 -24 -5
-30 -1 -5 -8 -2 -16 6 -10 10 -16 39 -18 87 -2 50 -7 76 -18 88 -15 14 -17 13
-26 -13 -11 -30 -10 -134 2 -152 3 -6 10 -9 15 -6 11 7 25 -59 16 -73 -9 -15
21 -23 49 -12 19 7 23 6 18 -6 -7 -19 -52 -30 -72 -17 -10 6 -15 21 -13 37 4
33 -14 34 -20 1 -8 -41 -8 -178 0 -214 6 -26 13 -35 32 -38 13 -2 36 -11 51
-21 l28 -17 -39 0 c-24 0 -46 -8 -59 -19 -31 -28 -26 -41 6 -16 36 28 51 12
27 -29 -10 -17 -22 -31 -26 -31 -4 0 -8 -5 -8 -12 0 -9 3 -9 12 0 22 22 34 13
30 -23 -2 -20 1 -42 8 -51 7 -8 14 -40 14 -72 1 -49 4 -58 25 -68 37 -19 48
-44 21 -51 -34 -9 -23 -49 13 -46 32 2 33 -1 7 -34 -11 -14 -20 -34 -20 -45 0
-15 3 -17 19 -9 16 9 19 7 19 -15 0 -15 6 -31 13 -36 9 -6 -2 -7 -35 -3 l-48
7 33 -30 c34 -30 34 -31 17 -60 -13 -22 -14 -32 -6 -40 19 -19 30 -14 22 11
l-7 22 23 -20 22 -20 -32 -28 c-41 -36 -32 -45 22 -21 23 10 45 18 48 17 12
-6 6 -43 -6 -43 -19 0 -18 -19 1 -26 24 -10 55 -69 55 -106 0 -41 8 -52 28
-36 11 10 14 8 12 -7 -4 -37 0 -45 25 -55 21 -8 24 -13 16 -28 -5 -10 -17 -24
-25 -32 -20 -16 -20 -43 -1 -79 8 -16 12 -31 9 -34 -6 -6 14 -12 66 -21 25 -4
41 -15 53 -35 15 -26 15 -30 -2 -63 -16 -33 -16 -35 0 -31 9 3 31 -3 48 -11
28 -15 35 -14 32 7 -1 9 33 9 42 0 16 -16 -27 -43 -69 -43 -33 0 -46 -5 -54
-19 -18 -35 -11 -43 19 -22 32 23 41 19 41 -18 0 -24 4 -26 38 -27 60 -2 131
-40 147 -78 8 -18 24 -40 37 -49 20 -14 21 -16 5 -16 -18 -1 -77 52 -77 69 0
11 -51 43 -58 36 -3 -4 4 -13 16 -22 27 -19 30 -69 5 -83 -28 -15 -13 -20 87
-26 52 -3 103 -8 114 -11 17 -6 16 -8 -10 -29 l-28 -22 18 -41 c16 -35 42 -60
52 -49 2 2 -5 20 -16 40 -25 47 -25 47 5 47 17 0 25 -5 25 -18 0 -10 9 -25 20
-35 17 -14 18 -20 8 -44 -6 -16 -15 -32 -20 -38 -4 -5 -8 -15 -8 -22 0 -9 9
-7 32 7 l32 19 26 -31 c22 -26 33 -31 80 -33 67 -4 105 9 96 31 -8 20 11 45
29 38 7 -3 11 -14 8 -24 -3 -10 2 -29 11 -42 18 -25 21 -42 7 -33 -12 7 -22
-9 -28 -47 l-5 -31 26 16 c27 18 82 22 105 8 10 -6 14 -26 12 -67 -1 -51 0
-56 14 -44 13 11 21 10 45 -9 35 -25 38 -20 10 16 -25 32 -18 45 18 32 41 -15
73 -42 75 -66 1 -25 23 -20 32 7 4 13 -8 32 -45 66 -27 26 -50 53 -50 61 0 8
16 -2 36 -22 32 -33 81 -61 90 -52 2 2 -1 19 -6 38 l-9 34 22 -25 c52 -59 104
-79 93 -35 -8 33 1 32 36 -7 33 -37 34 -41 9 -33 -22 7 -53 -4 -45 -16 3 -5
23 -9 44 -9 29 0 43 -6 58 -25 22 -27 42 -31 74 -14 12 6 54 13 94 15 83 3 94
7 94 35 0 10 6 19 14 19 19 0 29 -33 20 -62 -5 -18 6 -11 45 25 50 47 53 48
72 31 12 -11 19 -30 19 -55 0 -32 3 -36 19 -32 11 3 22 14 24 25 4 15 11 18
26 13 12 -4 21 -2 21 4 0 12 -35 33 -42 25 -3 -2 -10 2 -17 9 -18 22 11 40 49
32 21 -5 34 -15 41 -32 l9 -26 21 24 c12 13 27 23 34 21 7 -1 22 9 33 23 19
24 20 24 25 5 6 -25 22 -25 46 -1 27 27 61 44 61 32 0 -6 -22 -28 -49 -48 -28
-21 -50 -41 -50 -45 -2 -14 40 -29 67 -25 26 4 26 4 5 12 -13 4 -23 13 -23 21
0 20 30 32 82 32 71 0 86 8 80 40 l-5 27 20 -25 c11 -14 23 -35 27 -47 11 -33
23 -28 18 7 -2 16 -1 38 3 47 6 16 10 14 31 -12 18 -23 24 -26 24 -12 0 9 6
18 13 18 35 3 37 5 37 33 0 21 -33 30 -46 12 -14 -20 -34 -21 -34 -1 0 41 131
86 273 94 27 2 70 49 115 128 23 39 51 74 62 78 10 3 33 -1 50 -10 16 -8 30
-14 31 -13 0 2 2 16 4 32 5 35 44 94 68 102 10 3 25 0 33 -7 20 -16 29 -5 30
39 3 83 4 84 19 78 8 -3 19 2 24 12 12 20 12 20 16 -36 2 -23 13 -58 24 -78
26 -44 26 -46 -5 -34 -40 15 -39 13 5 -30 46 -45 47 -63 1 -50 -33 10 -35 6
-16 -29 7 -13 11 -32 8 -43 -3 -13 1 -18 18 -18 15 0 20 -5 17 -14 -3 -8 3
-31 14 -52 22 -44 24 -53 7 -36 -16 16 -38 15 -38 0 0 -7 16 -33 35 -57 41
-51 42 -57 15 -71 -15 -8 -21 -6 -30 11 -7 11 -9 28 -6 36 5 13 4 13 -8 4 -21
-18 -26 -50 -9 -66 29 -30 139 -9 169 33 17 24 28 9 13 -20 -16 -31 -39 -47
-66 -48 -13 0 -23 -3 -23 -6 0 -5 20 -45 26 -53 2 -2 27 17 56 43 57 50 70 55
67 28 -4 -45 16 -82 44 -82 7 1 2 9 -10 19 -28 23 -29 31 -4 31 30 0 51 -11
51 -26 0 -20 10 -17 37 8 l23 21 25 -29 c14 -16 25 -32 25 -36 0 -5 4 -8 9 -8
6 0 6 12 0 32 -5 17 -7 34 -4 36 2 3 21 -8 42 -24 l38 -29 -23 32 c-46 65 -18
63 65 -3 l41 -34 -9 35 c-6 19 -7 41 -3 48 6 8 3 8 -9 -1 -17 -15 -40 -7 -34
11 4 14 37 18 57 7 25 -14 41 7 29 38 -8 21 -7 23 5 13 21 -18 25 -47 10 -76
-14 -28 -9 -55 11 -55 8 0 11 8 8 20 -4 17 0 20 24 20 16 0 35 -6 42 -13 10
-10 11 -6 5 18 -4 17 -14 45 -22 64 l-14 35 36 -31 c27 -25 41 -30 65 -27 26
4 31 2 31 -15 0 -14 -6 -21 -19 -21 -14 0 -18 -5 -14 -20 7 -28 24 -36 34 -17
5 8 26 21 47 27 20 6 46 16 58 22 21 10 21 10 3 46 -25 47 -12 62 36 39 19 -9
35 -13 35 -7 0 5 -4 11 -9 14 -12 8 -19 49 -11 72 6 14 2 20 -14 24 -29 8 -28
44 2 48 19 3 28 19 23 45 -1 5 -4 40 -7 78 -6 64 -4 73 20 109 30 45 32 54 11
47 -19 -8 -60 26 -51 42 4 6 11 9 16 6 11 -7 32 30 23 39 -3 3 -15 6 -25 6
-26 0 -22 29 9 62 23 24 25 31 17 60 -7 23 -17 34 -32 36 -28 4 -28 13 1 49
55 69 55 69 14 44 -45 -27 -50 -12 -12 39 29 39 30 44 10 37 -8 -4 -17 -2 -20
3 -7 11 25 70 37 70 4 0 8 5 8 10 0 7 -6 7 -19 1 -26 -14 -31 -5 -20 35 10 35
5 59 -12 49 -15 -10 -10 8 16 50 30 48 31 58 6 50 -24 -7 -43 22 -35 53 8 29
33 37 27 9 -4 -22 -4 -22 12 -2 10 12 13 29 10 46 -4 15 1 43 9 64 22 52 20
62 -14 102 -33 37 -40 69 -13 59 19 -8 34 10 26 31 -3 7 -14 13 -24 13 -10 0
-19 4 -19 9 0 16 31 41 51 41 10 0 19 4 19 9 0 14 -22 26 -45 26 -21 0 -21 1
-10 54 6 29 5 33 -9 28 -22 -9 -20 0 9 52 31 53 31 59 1 54 -15 -3 -25 1 -29
11 -7 19 7 61 23 71 9 6 9 2 1 -14 -7 -13 -8 -21 -2 -21 17 0 29 34 24 69 -5
31 -4 32 15 22 33 -17 35 -13 12 19 -12 17 -20 39 -17 50 4 16 1 17 -25 8 -16
-6 -31 -8 -34 -5 -3 2 14 28 36 56 41 52 41 52 11 37 -16 -9 -32 -16 -36 -16
-12 0 -3 23 21 56 26 33 26 34 5 34 -27 0 -26 7 4 53 14 20 21 37 16 37 -5 0
-13 -5 -16 -10 -14 -23 -22 3 -13 40 12 46 6 59 -17 40 -20 -17 -19 -8 6 34
34 58 30 144 -6 130 -11 -5 -14 -1 -9 12 11 31 26 45 42 39 11 -4 13 1 8 22
-4 16 -10 56 -13 91 -4 42 -10 62 -19 62 -18 0 -44 -39 -37 -56 3 -8 0 -14 -6
-14 -13 0 -33 47 -29 67 2 8 5 13 8 12 3 -1 15 3 28 10 24 13 31 37 8 28 -8
-3 -33 7 -55 24 -48 34 -51 35 -51 10 0 -44 -101 -47 -136 -4 l-22 25 -12 -36
c-14 -44 -9 -51 32 -51 17 0 33 -6 35 -12 3 -9 -6 -13 -27 -13 -24 0 -33 -5
-37 -20 -5 -18 -8 -19 -22 -7 -36 32 -117 40 -136 13 -12 -16 -15 -16 -51 3
l-38 20 -32 -20 -33 -20 -33 31 c-31 29 -32 31 -8 24 17 -4 22 -3 15 4 -15 15
-81 31 -94 23 -8 -5 -5 -16 9 -34 26 -33 25 -33 -41 -2 -53 24 -154 45 -177
37 -7 -2 -12 -12 -12 -23 0 -16 -3 -17 -25 -7 -16 7 -25 19 -25 35 0 18 -5 23
-24 23 -16 0 -27 7 -31 20 -3 11 -10 20 -15 20 -20 0 -18 -19 5 -63 30 -56 31
-61 6 -47 -11 5 -37 10 -58 11 -37 0 -38 0 -15 16 21 15 30 34 15 32 -39 -6
-105 49 -136 112 -19 39 -12 54 10 22 9 -13 19 -23 24 -23 5 0 9 10 9 23 0 20
3 19 35 -15 40 -44 50 -46 76 -15 24 29 24 40 -3 63 l-21 19 6 -37 c6 -42 -7
-59 -22 -29 -14 26 -14 78 0 87 6 3 24 -4 41 -16 36 -27 62 -20 55 16 -5 27
10 28 26 2 8 -11 5 -23 -11 -43 -20 -25 -29 -55 -17 -55 2 0 15 11 28 24 33
33 89 43 122 22 l25 -17 -6 39 c-6 39 8 82 26 82 6 0 10 -13 10 -30 0 -32 26
-43 36 -15 10 25 23 17 26 -17 3 -34 22 -48 31 -24 3 8 2 29 -3 47 -5 18 -8
34 -6 36 9 9 57 -44 59 -64 2 -28 -1 -28 47 -1 43 25 58 21 40 -11 l-11 -22
38 21 c24 13 57 20 90 20 45 0 53 3 53 19 0 21 19 31 56 31 20 0 24 4 19 19
-8 25 41 64 72 58 19 -3 21 -1 12 14 -6 12 -21 19 -40 19 -34 0 -69 16 -69 30
0 6 11 10 24 10 50 0 58 10 27 36 -27 22 -48 64 -32 64 4 0 16 -7 27 -15 25
-19 49 -19 65 2 13 15 11 16 -14 9 -24 -6 -28 -4 -23 11 3 10 7 31 10 47 l5
29 -24 -23 -24 -23 2 44 c2 48 -4 51 -58 37 l-30 -8 33 31 c17 16 32 38 32 47
-1 9 -27 48 -60 87 -52 62 -57 72 -44 86 23 26 18 86 -10 104 -13 9 -26 29
-29 45 -5 24 -10 27 -29 22 l-22 -5 23 29 23 29 -21 3 c-12 2 -29 14 -37 28
-10 14 -26 24 -40 24 -12 0 -25 4 -29 9 -8 15 16 25 51 22 19 -1 36 4 45 15
13 16 12 17 -15 10 -22 -5 -31 -3 -42 13 -9 13 -21 17 -35 14 -19 -5 -20 -3
-13 33 l7 39 -25 -22 c-24 -23 -58 -31 -58 -15 0 10 26 37 54 56 18 13 17 15
-22 44 -32 23 -50 29 -73 25 -19 -3 -37 1 -47 10 -10 8 -26 17 -37 19 -12 2
-21 13 -23 26 -4 28 4 28 45 -4 18 -14 38 -22 43 -19 9 6 50 87 50 100 0 3
-13 -8 -30 -25 -31 -31 -45 -36 -69 -21 -10 6 -12 20 -8 46 l6 37 -24 -26 -25
-27 -48 25 c-56 28 -102 77 -102 108 0 16 5 19 25 16 33 -7 32 -3 -10 36 -24
23 -35 42 -35 61 0 27 -1 28 -20 10 -11 -10 -17 -21 -15 -25 13 -21 -23 -59
-72 -74 -16 -5 -25 -2 -31 11 -9 16 -6 18 21 18 22 0 33 5 35 17 3 15 -4 17
-61 11 -68 -6 -107 6 -107 33 0 8 9 34 20 56 11 23 20 44 20 46 0 2 -16 -6
-35 -18 -22 -14 -46 -20 -61 -17 -15 3 -28 -1 -33 -11 -7 -13 -13 -12 -41 8
-19 14 -53 25 -81 28 -44 4 -49 7 -49 28 0 27 21 32 40 10 17 -22 42 -8 34 18
-9 29 -24 37 -57 30 -20 -4 -34 0 -48 12 -15 14 -24 16 -37 7 -19 -12 -22 -28
-10 -61 7 -20 6 -21 -11 -12 -11 5 -29 22 -40 37 -48 65 -58 68 -68 23 -7 -38
-15 -43 -48 -30 -37 14 -53 32 -57 65 -2 16 -9 31 -17 33 -11 4 -12 -5 -6 -44
4 -27 12 -58 17 -69 9 -15 3 -13 -22 8 -30 26 -34 27 -56 12 -47 -30 -83 -10
-114 65 -12 30 -21 36 -33 23z m-707 -124 c0 -5 -6 -6 -14 -3 -8 3 -18 -1 -22
-8 -9 -13 -10 -18 -13 -39 0 -5 -6 -7 -11 -4 -12 7 -7 44 10 75 11 21 12 21
31 4 10 -9 19 -21 19 -25z m1108 -2 c7 -7 7 -18 2 -27 -7 -11 -11 -11 -24 -1
-9 8 -16 20 -16 27 0 18 24 18 38 1z m637 -199 c-4 -13 -13 -30 -21 -38 -12
-12 -14 -12 -14 3 0 20 21 57 33 57 5 0 5 -10 2 -22z m-2371 -135 c8 -20 -1
-33 -19 -26 -8 3 -15 16 -15 29 0 26 24 24 34 -3z m1282 -846 c11 4 15 2 11
-4 -4 -6 1 -17 11 -26 21 -19 98 -14 122 8 24 21 37 19 35 -7 -1 -15 -9 -24
-23 -26 -12 -2 -22 -10 -22 -18 0 -15 8 -17 50 -15 14 1 38 -5 54 -13 21 -10
36 -12 53 -5 24 9 25 8 19 -16 -5 -20 -3 -25 13 -25 10 0 21 7 25 15 9 24 23
18 45 -19 25 -40 27 -62 5 -70 -12 -4 -14 -1 -9 14 7 24 -7 26 -25 5 -10 -12
-10 -18 -1 -29 14 -16 49 -13 92 9 46 24 55 17 21 -18 -18 -18 -32 -37 -32
-43 0 -5 14 -25 30 -44 l31 -35 -16 32 c-8 18 -15 39 -15 48 0 15 37 35 64 35
12 0 27 -40 30 -77 1 -7 20 -32 42 -55 47 -49 70 -87 54 -89 -30 -5 -34 -2
-35 25 0 16 -6 31 -12 33 -8 3 -13 -5 -13 -22 0 -14 6 -36 13 -48 6 -12 12
-40 12 -62 0 -29 4 -40 15 -40 8 0 16 10 18 22 3 22 32 41 32 21 0 -7 18 -31
40 -53 l40 -41 -32 4 c-30 3 -36 -1 -61 -43 -15 -26 -33 -44 -40 -42 -6 2 -11
10 -10 16 4 17 -13 13 -75 -18 -61 -30 -79 -30 -102 3 -14 20 -15 19 -26 -19
-7 -22 -13 -31 -13 -20 -1 29 -29 65 -45 59 -8 -3 -12 -14 -9 -25 5 -17 2 -18
-18 -11 -16 6 -25 19 -27 36 -3 22 -6 25 -18 15 -18 -15 -18 -43 1 -59 24 -20
17 -30 -11 -20 -15 6 -35 22 -46 35 -31 40 -81 31 -53 -9 23 -31 18 -38 -14
-21 -16 8 -32 25 -36 37 -11 39 -28 68 -37 62 -14 -9 -9 -57 12 -101 l19 -42
-36 19 c-19 10 -41 16 -49 13 -12 -4 -13 -1 -3 21 7 14 16 26 21 26 4 0 8 4 8
9 0 5 -8 8 -17 6 -10 -1 -42 10 -70 26 -63 35 -69 36 -49 7 9 -12 16 -33 16
-46 0 -17 4 -23 15 -18 21 8 20 -22 -2 -46 -27 -30 -43 -22 -43 20 0 41 -13
68 -27 59 -6 -4 -26 3 -46 13 -29 16 -35 17 -30 4 8 -21 -24 -53 -48 -47 -11
3 -29 19 -41 35 l-21 30 -12 -28 c-13 -31 -10 -48 7 -38 6 4 8 -3 6 -17 -5
-35 -25 -34 -62 5 -38 41 -51 45 -43 15 7 -28 -14 -34 -52 -15 -36 19 -52 45
-46 75 2 11 0 21 -5 21 -13 0 -24 -47 -23 -97 0 -31 -3 -40 -13 -36 -8 3 -14
9 -14 13 0 12 -46 18 -65 8 -11 -7 -15 -20 -13 -43 3 -40 -6 -52 -27 -35 -12
10 -15 10 -15 -4 0 -10 11 -19 29 -22 17 -4 31 -14 34 -24 6 -23 0 -30 -24
-30 -25 0 -35 -42 -19 -80 16 -39 58 -80 81 -80 23 0 23 -4 3 -35 -14 -21 -21
-41 -23 -68 -1 -13 -44 -4 -49 11 -2 6 3 12 11 12 15 0 30 37 18 44 -13 8 -30
-9 -46 -47 -21 -50 -19 -57 11 -57 29 0 64 -16 64 -30 0 -6 -17 -10 -37 -10
l-38 0 39 -33 39 -33 -29 1 c-28 0 -29 -1 -31 -58 -1 -32 -8 -68 -16 -80 -13
-20 -13 -28 -1 -56 8 -18 14 -44 14 -57 0 -16 4 -22 14 -18 8 3 21 -5 30 -18
21 -29 20 -35 -5 -41 -18 -5 -20 -12 -16 -53 2 -26 8 -49 13 -51 5 -1 24 11
43 27 23 21 37 27 41 19 12 -19 -1 -50 -26 -60 -29 -11 -31 -25 -4 -39 23 -12
45 -2 45 20 0 9 9 15 25 15 18 0 26 -6 28 -22 2 -17 10 -23 27 -23 17 0 25 -6
27 -22 4 -31 58 -40 58 -9 0 25 5 28 60 36 24 4 49 13 54 20 6 8 40 17 76 20
77 7 114 27 105 56 -8 24 2 24 27 2 19 -17 21 -17 50 0 35 20 49 22 46 5 -2
-8 9 -14 25 -16 20 -3 27 -9 27 -25 1 -20 2 -20 25 8 27 32 35 23 10 -12 -23
-33 -100 -36 -100 -4 0 6 -3 11 -7 11 -5 0 -12 0 -18 0 -5 0 -10 -8 -10 -18 0
-23 38 -41 96 -47 36 -4 44 -1 57 19 10 14 24 22 39 21 32 -3 61 14 54 31 -7
18 12 17 44 -1 30 -17 77 -19 82 -4 5 14 97 24 132 15 17 -4 26 -13 26 -26 0
-28 15 -32 41 -11 25 20 59 17 59 -6 0 -8 -5 -11 -10 -8 -17 11 -40 -3 -34
-20 6 -16 54 -22 54 -6 0 14 53 31 82 26 28 -5 46 9 27 21 -7 4 -28 7 -48 6
-20 -1 -42 2 -50 7 -22 14 -3 32 26 25 19 -5 30 -2 39 11 11 15 16 12 50 -35
25 -35 46 -53 66 -57 16 -3 33 -13 38 -23 8 -14 5 -16 -15 -12 -22 4 -25 1
-25 -23 0 -18 6 -28 20 -32 23 -6 26 -36 10 -95 -13 -45 -27 -57 -27 -22 0 23
-37 74 -53 74 -4 0 -5 -14 -2 -30 7 -49 -50 -101 -88 -80 -24 13 -27 -2 -4
-21 13 -11 23 -10 60 4 29 10 46 12 50 6 12 -21 -17 -33 -86 -37 l-69 -4 -21
-45 c-19 -40 -24 -44 -51 -41 -17 2 -31 0 -30 -4 1 -5 1 -14 1 -22 0 -8 15
-24 33 -36 l32 -21 -60 6 c-33 4 -78 16 -99 26 -50 24 -51 24 -76 -3 -27 -30
-25 -35 10 -30 22 3 42 -3 70 -23 22 -16 39 -29 37 -31 -2 -2 -19 1 -38 7 -19
5 -54 12 -78 14 -51 6 -61 16 -61 63 0 17 -2 32 -4 32 -3 0 -21 -9 -40 -21
-26 -15 -43 -19 -70 -13 -29 5 -35 3 -31 -8 7 -18 -9 -32 -58 -47 -20 -7 -42
-21 -47 -32 -13 -23 -74 -26 -125 -5 -20 9 -51 13 -72 10 l-38 -5 26 15 c46
26 146 25 151 -1 3 -16 5 -16 16 3 6 12 14 41 17 65 l7 44 -31 -35 c-26 -29
-32 -33 -41 -20 -5 8 -10 19 -10 24 0 5 -10 0 -22 -11 -13 -11 -51 -27 -85
-36 -82 -22 -96 -22 -88 2 5 16 2 18 -15 14 -13 -4 -26 1 -36 13 -11 14 -14
15 -13 4 3 -35 -2 -50 -17 -50 -9 0 -18 9 -21 19 -3 10 -16 21 -29 24 -28 5
-34 0 -34 -25 0 -11 -7 -18 -19 -18 -43 0 -38 49 7 70 22 11 24 14 10 17 -16
4 -64 -23 -96 -54 -18 -17 -28 -10 -37 24 -9 39 -25 54 -46 48 -23 -8 -26 20
-4 29 22 8 50 -12 68 -48 l16 -31 0 30 c1 47 -9 73 -30 78 -11 3 -19 9 -18 14
4 22 -4 22 -45 -2 -44 -26 -44 -26 -51 -5 -6 19 -16 24 -42 21 -7 -1 -10 8 -7
23 4 24 -19 50 -90 99 -15 10 -24 23 -21 28 8 12 -52 72 -64 64 -5 -3 -12 -1
-15 4 -4 5 -2 12 4 16 5 3 10 19 10 36 0 24 -4 29 -25 29 -14 0 -29 8 -35 20
-13 23 -4 44 13 33 7 -4 -2 9 -20 29 -34 40 -36 45 -53 133 -7 33 -21 70 -32
81 -19 21 -19 21 23 62 34 34 39 43 25 48 -19 7 -49 -14 -39 -28 3 -6 0 -9 -8
-6 -9 3 -15 22 -17 49 -2 34 -8 47 -24 54 -28 13 -25 29 7 33 42 6 44 46 5
124 -23 46 -23 48 -5 68 18 19 18 21 -1 41 l-19 21 40 -3 40 -4 0 50 0 50 33
-2 c27 -1 31 1 21 13 -15 18 -60 18 -85 -1 -10 -8 -28 -15 -38 -15 -18 0 -18
1 3 23 12 13 29 50 38 81 10 36 25 63 39 72 19 13 21 20 14 46 -5 16 -14 36
-21 44 -9 11 -8 14 3 14 8 0 19 -5 26 -12 15 -15 19 -11 26 34 4 25 1 42 -8
50 -11 10 -5 20 35 56 47 42 61 74 38 87 -17 11 -23 -3 -8 -22 13 -16 12 -17
-3 -4 -26 20 -22 38 11 49 24 8 32 7 45 -7 9 -10 16 -26 16 -37 1 -18 1 -18
11 -1 9 15 5 30 -15 68 -14 27 -23 49 -21 49 2 0 15 -4 28 -9 33 -13 39 -4 22
30 -8 15 -15 37 -15 48 0 18 5 21 105 56 16 5 14 1 -8 -19 -15 -14 -36 -26
-46 -26 -23 0 -31 -9 -24 -26 8 -20 27 -17 69 11 20 14 46 25 58 25 30 1 54
22 60 53 3 19 0 27 -10 27 -14 0 -18 -10 -15 -42 3 -25 -25 -22 -43 4 -22 32
-20 47 5 41 14 -4 25 0 31 11 5 9 20 16 33 16 24 0 38 13 41 38 4 23 11 24 38
7 l26 -17 0 51 c0 39 4 51 15 51 11 0 15 -9 13 -28 -2 -30 8 -52 23 -52 6 0 7
9 4 21 -6 19 -4 20 26 14 l33 -7 -18 27 c-21 31 -16 41 12 26 29 -16 35 -14
29 9 -7 26 4 25 39 -2 22 -18 40 -23 81 -22 l53 2 -19 -27 c-32 -47 -33 -57
-1 -23 43 46 37 66 -22 70 -31 2 -48 8 -52 19 -5 11 -2 14 10 9 9 -4 28 1 42
10 23 15 25 15 53 -16 25 -27 32 -30 45 -19 10 8 13 21 9 37 l-6 24 30 -21
c18 -13 36 -18 47 -14z m1753 20 c13 -16 5 -27 -21 -27 -18 0 -25 20 -11 33
10 10 19 8 32 -6z m-1485 -53 c33 -13 11 -60 -23 -49 -23 7 -27 25 -9 43 14
14 12 14 32 6z m1437 -365 c-14 -46 -30 -59 -74 -61 -40 -1 -69 16 -61 37 5
12 12 12 45 -2 21 -8 46 -13 54 -9 19 7 20 36 0 36 -21 0 -19 8 13 49 26 35
27 36 30 11 2 -13 -1 -41 -7 -61z m99 46 c0 -8 -32 -35 -41 -35 -14 0 -11 38
4 43 11 4 37 -2 37 -8z m-297 -79 c11 4 17 1 17 -9 0 -8 -9 -17 -19 -20 -23
-6 -51 21 -51 49 0 17 2 17 18 -4 12 -15 24 -21 35 -16z m-293 -15 c5 -11 10
-24 10 -30 0 -17 -27 -13 -34 5 -16 41 4 62 24 25z m-385 -101 c9 -15 -37 -30
-52 -18 -7 6 -10 14 -7 19 7 12 51 11 59 -1z m40 -62 c31 -36 62 -84 70 -108
6 -18 3 -21 -17 -18 -16 2 -24 11 -27 28 -5 39 -40 82 -62 77 -22 -6 -23 -3
-9 24 14 25 21 24 45 -3z m1195 -97 c0 -15 -60 -61 -78 -61 -12 1 -4 12 23 35
41 35 55 42 55 26z m-2186 -37 c5 -14 -5 -18 -34 -14 -22 3 -24 8 -11 24 14
17 37 12 45 -10z m753 -1 c13 -19 12 -20 -10 -16 -19 4 -26 -1 -32 -19 -8 -23
-8 -23 -12 5 -5 29 13 60 30 54 6 -2 16 -12 24 -24z m641 -13 c6 -16 8 -30 4
-30 -14 0 -30 15 -32 30 -7 49 12 49 28 0z m77 -7 l19 -28 -34 26 c-19 14 -36
31 -38 38 -7 22 33 -5 53 -36z m-1932 -209 c-2 -5 -7 -9 -13 -8 -5 1 -18 2
-27 3 -15 1 -15 3 -4 10 17 11 47 7 44 -5z m-398 -24 c4 -6 -7 -10 -24 -10
-17 0 -31 4 -31 8 0 11 48 13 55 2z m-25 -250 c0 -16 -14 -12 -38 10 -12 12
-22 31 -22 43 1 20 3 20 30 -11 17 -18 30 -37 30 -42z m-1201 -57 l24 -16 -23
-19 c-12 -10 -34 -18 -48 -18 -25 0 -25 1 -6 15 19 15 19 15 -5 35 l-23 20 29
0 c16 0 39 -7 52 -17z m15 -98 c14 -14 12 -45 -3 -45 -11 0 -32 40 -26 50 8
13 11 13 29 -5z m1631 -61 c22 -22 12 -28 -24 -16 -37 13 -38 9 -10 -29 24
-34 16 -59 -11 -34 -10 9 -21 28 -25 42 -11 46 36 71 70 37z m-1629 -82 c-3
-10 0 -41 8 -70 7 -29 10 -55 5 -57 -12 -8 -39 24 -40 48 -2 33 2 81 8 90 9
15 24 6 19 -11z m1884 -151 c5 -11 10 -32 10 -48 l1 -28 25 30 c25 29 25 29
18 5 -8 -29 -31 -49 -56 -50 -9 0 -20 -4 -23 -10 -3 -5 -17 -10 -30 -10 -26 0
-40 28 -30 60 8 24 22 25 47 4 17 -16 18 -15 12 25 -6 44 7 56 26 22z m534 3
c3 -9 6 -28 6 -42 -1 -26 -1 -26 -15 -8 -16 22 -20 66 -6 66 5 0 12 -7 15 -16z
m-2400 -47 c12 -19 3 -32 -19 -24 -17 7 -21 51 -3 45 6 -2 16 -12 22 -21z
m2021 -4 c-24 -17 -41 -17 -48 1 -6 16 17 25 47 17 18 -4 18 -5 1 -18z m-568
-285 c14 -19 10 -43 -7 -43 -9 0 -16 11 -18 28 -3 28 9 36 25 15z m2902 -62
c9 -11 10 -20 1 -35 -12 -24 -21 -26 -38 -9 -16 16 -15 45 1 51 20 9 24 8 36
-7z m-1861 -188 c-4 -13 -88 -46 -118 -47 -29 -2 81 55 113 58 5 1 7 -5 5 -11z
m-2239 -311 c6 -8 7 -17 3 -22 -4 -4 5 -5 21 -3 15 3 27 2 27 -1 0 -9 -22 -31
-31 -31 -12 0 -69 51 -69 61 0 14 36 11 49 -4z m651 -657 c0 -5 -9 -15 -20
-22 -29 -18 -25 -34 11 -47 49 -17 62 -15 49 8 -15 28 -12 33 10 19 11 -7 20
-21 20 -30 0 -11 -8 -19 -20 -19 -11 -1 -26 -2 -32 -3 -18 -3 -62 19 -78 39
-11 13 -9 19 10 40 24 25 50 33 50 15z m2001 -83 c-14 -14 -121 -22 -121 -9 0
16 38 25 77 17 32 -6 34 -5 24 14 -6 11 -16 23 -21 26 -6 3 -10 12 -10 18 0 7
14 -3 31 -22 22 -23 28 -36 20 -44z m886 -170 c-21 -32 -65 -43 -85 -23 -16
16 -16 18 2 31 11 9 30 12 48 8 28 -6 30 -5 19 15 -17 32 -12 39 10 13 17 -21
18 -26 6 -44z m-133 44 c8 -12 -11 -61 -23 -61 -11 0 -24 48 -16 60 8 13 32
13 39 1z m-2008 -70 c-4 -27 -2 -41 7 -44 19 -7 47 12 41 28 -8 19 -5 19 40 0
40 -17 59 -12 105 29 l25 21 -22 -31 c-26 -38 -68 -67 -83 -58 -6 4 -36 -2
-66 -12 -54 -18 -55 -18 -69 1 -19 25 -18 64 3 87 23 26 26 23 19 -21z"/>
<path d="M2251 3746 c-16 -28 -9 -56 14 -56 8 0 15 3 16 8 0 4 2 15 4 24 2 9
-2 24 -9 33 -11 15 -13 14 -25 -9z"/>
<path d="M2965 3175 c-19 -16 -25 -24 -15 -25 19 0 60 28 60 41 0 15 -13 10
-45 -16z"/>
<path d="M1357 2956 c-3 -8 0 -19 6 -24 16 -13 60 4 55 20 -7 19 -54 22 -61 4z"/>
<path d="M1356 2313 c-11 -12 -6 -22 17 -29 37 -13 46 -13 41 1 -6 15 -50 36
-58 28z"/>
<path d="M1385 2188 c8 -38 20 -54 29 -40 8 13 -13 72 -26 72 -6 0 -7 -13 -3
-32z"/>
<path d="M2745 2015 c-27 -23 -28 -25 -10 -32 11 -4 37 -7 58 -7 40 -1 57 14
57 49 0 17 -3 16 -24 -10 -19 -24 -27 -27 -37 -18 -10 10 -9 15 1 28 21 26
-13 19 -45 -10z"/>
<path d="M2267 1998 c-31 -42 -40 -68 -24 -67 25 1 83 99 58 99 -5 0 -21 -15
-34 -32z"/>
<path d="M2613 2000 c-26 -11 -57 -54 -50 -72 2 -8 12 0 23 19 23 39 37 41 76
8 30 -25 58 -33 58 -15 0 5 -10 15 -22 22 -13 7 -23 20 -23 28 0 18 -31 23
-62 10z"/>
<path d="M3064 1949 c-3 -6 -2 -15 4 -21 12 -12 55 8 47 23 -8 12 -42 12 -51
-2z"/>
<path d="M1697 1743 c-7 -12 14 -55 30 -60 8 -3 11 4 8 18 -5 27 -30 55 -38
42z"/>
<path d="M2482 5065 c-21 -26 -21 -26 -34 -6 -16 26 -30 28 -21 4 14 -39 33
-52 63 -41 34 11 46 36 27 56 -12 12 -17 10 -35 -13z"/>
<path d="M2640 5067 c0 -24 25 -55 36 -45 7 7 -12 55 -25 63 -7 4 -11 -4 -11
-18z"/>
<path d="M3000 4996 c0 -40 2 -42 53 -50 47 -7 87 2 87 20 0 22 -33 35 -50 19
-23 -21 -42 -22 -45 -2 -6 34 -14 47 -30 47 -10 0 -15 -10 -15 -34z"/>
<path d="M4740 4983 c-23 -26 -29 -38 -20 -41 14 -5 70 50 70 68 0 19 -18 9
-50 -27z"/>
<path d="M3227 4882 c-18 -20 -23 -52 -8 -52 10 0 36 58 29 65 -3 3 -12 -3
-21 -13z"/>
<path d="M6220 4850 c0 -11 7 -23 15 -27 21 -8 28 1 20 26 -8 27 -35 27 -35 1z"/>
<path d="M4085 4763 c-11 -3 -23 -10 -27 -16 -13 -21 3 -27 33 -12 16 9 27 20
24 25 -4 6 -7 9 -8 9 -1 -1 -11 -4 -22 -6z"/>
<path d="M4185 4750 c-6 -10 73 -80 91 -80 20 0 24 28 6 49 -19 22 -89 44 -97
31z"/>
<path d="M6630 4756 c0 -19 27 -57 44 -63 56 -19 61 -7 14 29 -42 31 -58 41
-58 34z"/>
<path d="M3460 4699 c0 -14 37 -29 69 -29 34 0 42 15 13 24 -32 11 -82 13 -82
5z"/>
<path d="M852 4636 c-11 -25 -1 -52 17 -42 13 8 15 52 2 60 -4 3 -13 -5 -19
-18z"/>
<path d="M750 4574 c-8 -20 -6 -33 7 -55 9 -15 23 -31 30 -33 9 -4 8 2 -3 19
-11 17 -15 37 -11 60 7 41 -9 47 -23 9z"/>
<path d="M6550 4471 c0 -18 22 -71 30 -71 17 0 20 18 9 49 -10 27 -39 45 -39
22z"/>
<path d="M4341 4405 c-36 -42 -41 -56 -9 -29 26 22 58 55 58 61 0 12 -23 -2
-49 -32z"/>
<path d="M6707 4434 c-3 -3 -3 -12 0 -20 5 -15 63 -20 63 -6 0 23 -47 42 -63
26z"/>
<path d="M3865 4380 c-7 -12 12 -40 27 -40 13 0 6 43 -9 47 -6 2 -14 -1 -18
-7z"/>
<path d="M6259 4384 c0 -5 -2 -16 -4 -25 -4 -22 10 -43 24 -35 16 10 14 41 -4
56 -8 7 -15 9 -16 4z"/>
<path d="M4040 3991 c-5 -11 -10 -29 -10 -41 0 -25 42 -70 67 -70 14 0 10 6
-14 29 -27 24 -30 33 -26 65 5 40 -1 46 -17 17z"/>
<path d="M4104 3099 c-12 -14 -25 -18 -42 -14 -20 5 -22 3 -13 -14 14 -25 41
-18 77 20 20 21 23 29 12 29 -8 0 -23 -9 -34 -21z"/>
<path d="M3865 3090 c-4 -6 -4 -23 -1 -36 6 -22 9 -24 22 -13 17 14 15 50 -3
56 -6 2 -14 -1 -18 -7z"/>
<path d="M3940 3093 c0 -15 35 -43 54 -43 11 0 16 6 14 18 -2 10 -11 16 -22
14 -9 -2 -24 2 -32 9 -8 6 -14 7 -14 2z"/>
<path d="M5443 2598 c-19 -22 -20 -68 -3 -68 15 0 31 49 22 66 -7 13 -10 13
-19 2z"/>
<path d="M264 1299 l-19 -22 38 7 c36 7 38 6 27 -13 -8 -17 -8 -21 4 -21 11 0
26 20 26 35 0 9 -33 35 -44 35 -7 0 -21 -10 -32 -21z"/>
<path d="M414 1065 c-8 -20 4 -35 26 -35 28 0 36 21 15 37 -24 17 -34 17 -41
-2z"/>
<path d="M3150 541 c0 -20 27 -48 37 -37 9 8 -14 56 -27 56 -5 0 -10 -8 -10
-19z"/>
<path d="M2845 380 c-10 -17 5 -48 21 -46 20 3 34 25 27 43 -6 15 -39 18 -48
3z"/>
<path d="M1256 305 c-7 -18 16 -30 40 -21 13 5 14 9 4 21 -16 19 -36 19 -44 0z"/>
<path d="M4440 316 c0 -2 8 -10 18 -17 15 -13 16 -12 3 4 -13 16 -21 21 -21
13z"/>
<path d="M3530 221 c0 -22 25 -39 38 -27 8 8 -10 38 -26 44 -7 2 -12 -6 -12
-17z"/>
<path d="M2116 189 c-8 -12 -12 -28 -9 -36 4 -11 8 -11 18 4 30 46 22 76 -9
32z"/>
</g>
</svg>
